<?xml version="1.0" encoding="UTF-8"?><svg id="b" xmlns="http://www.w3.org/2000/svg" width="263.6916" height="215.4834473" viewBox="0 0 263.6916 215.4834473"><defs><style>.d{fill:#261513;}.e{fill:#ffd561;}</style></defs><g id="c"><polygon class="e" points="259.691116 211.4833641 4.0001568 211.4833641 131.8456364 3.9999406 259.691116 211.4833641"/><path class="d" d="M259.6915321,215.4834473H4.0000679c-1.4492191,0-2.7851569-.7841799-3.4921883-2.0498052s-.6738283-2.8144538.0869141-4.048829L128.4405258,1.9013676c.7285158-1.1816409,2.016602-1.9013676,3.4052742-1.9013676s2.6767584.7197267,3.4052742,1.9013676l127.8457321,207.4834455c.7607424,1.2343753.7939455,2.7832038.0869141,4.048829s-2.0429692,2.0498052-3.4921883,2.0498052ZM11.1631554,207.4834455h241.3652891L131.8458,11.6250026,11.1631554,207.4834455Z"/><path class="d" d="M140.2270026,167.2291178c0,4.6317139-3.6393055,8.1606728-8.3813662,8.1606728s-8.3813662-3.5289588-8.3813662-8.1606728,3.6393055-8.2710195,8.3813662-8.2710195,8.3813662,3.6393055,8.3813662,8.2710195ZM124.0160038,97.5320033c0-4.6317139,3.5289588-7.278611,7.9399793-7.278611,4.3006738,0,7.7192859,2.7572438,7.7192859,7.278611,0,2.5365504-.4406749,6.9475709-.5510216,8.7124063-.9924084,14.2261819-1.6544887,23.5999565-2.2055103,41.7957722-.1103467,2.7572438-2.2055103,4.5213672-5.1834475,4.5213672-2.9772253,0-4.8524074-1.7641234-4.9627541-4.5213672-.5510216-18.1958157-1.1027551-28.2316705-2.315857-43.4502608-.1103467-1.4337952-.4406749-5.8448158-.4406749-7.0579176Z"/></g></svg>